  0
SECTION
  2
HEADER
  9
$ACADVER
  1
AC1009
  9
$EXTMIN
 10
0.0
 20
0.0
 30
0.0
  9
$EXTMAX
 10
1000.0
 20
1000.0
 30
0.0
  9
$FILLMODE
 70
 0
  9
$SPLFRAME
 70
 1
  0
ENDSEC
  0
SECTION
  2
TABLES
  0
TABLE
  2
LAYER
 70
1
  0
LAYER
  2
0
 70
     0
 62
     7
  6
CONTINUOUS
  0
ENDTAB
  0
ENDSEC
  0
SECTION
  2
ENTITIES
  0
LINE
  8
0
 62
     0
 10
302.897
 20
95.5075
 30
0.0
 11
303.053
 21
95.5008
 31
0.0
  0
LINE
  8
0
 62
     0
 10
303.053
 20
95.5008
 30
0.0
 11
303.208
 21
95.4828
 31
0.0
  0
LINE
  8
0
 62
     0
 10
303.208
 20
95.4828
 30
0.0
 11
303.363
 21
95.4525
 31
0.0
  0
LINE
  8
0
 62
     0
 10
303.363
 20
95.4525
 30
0.0
 11
303.514
 21
95.4098
 31
0.0
  0
LINE
  8
0
 62
     0
 10
303.514
 20
95.4098
 30
0.0
 11
303.662
 21
95.3548
 31
0.0
  0
LINE
  8
0
 62
     0
 10
303.662
 20
95.3548
 30
0.0
 11
303.804
 21
95.2899
 31
0.0
  0
LINE
  8
0
 62
     0
 10
303.804
 20
95.2899
 30
0.0
 11
303.94
 21
95.213
 31
0.0
  0
LINE
  8
0
 62
     0
 10
303.94
 20
95.213
 30
0.0
 11
304.071
 21
95.1258
 31
0.0
  0
LINE
  8
0
 62
     0
 10
304.071
 20
95.1258
 30
0.0
 11
304.195
 21
95.0281
 31
0.0
  0
LINE
  8
0
 62
     0
 10
304.195
 20
95.0281
 30
0.0
 11
304.311
 21
94.9219
 31
0.0
  0
LINE
  8
0
 62
     0
 10
304.311
 20
94.9219
 30
0.0
 11
304.417
 21
94.8062
 31
0.0
  0
LINE
  8
0
 62
     0
 10
304.417
 20
94.8062
 30
0.0
 11
304.515
 21
94.6838
 31
0.0
  0
LINE
  8
0
 62
     0
 10
304.515
 20
94.6838
 30
0.0
 11
304.602
 21
94.5526
 31
0.0
  0
LINE
  8
0
 62
     0
 10
304.602
 20
94.5526
 30
0.0
 11
304.679
 21
94.415
 31
0.0
  0
LINE
  8
0
 62
     0
 10
304.679
 20
94.415
 30
0.0
 11
304.744
 21
94.2728
 31
0.0
  0
LINE
  8
0
 62
     0
 10
304.744
 20
94.2728
 30
0.0
 11
304.799
 21
94.1268
 31
0.0
  0
LINE
  8
0
 62
     0
 10
304.799
 20
94.1268
 30
0.0
 11
304.84
 21
93.974
 31
0.0
  0
LINE
  8
0
 62
     0
 10
304.84
 20
93.974
 30
0.0
 11
304.872
 21
93.8209
 31
0.0
  0
LINE
  8
0
 62
     0
 10
304.872
 20
93.8209
 30
0.0
 11
304.89
 21
93.6639
 31
0.0
  0
LINE
  8
0
 62
     0
 10
304.89
 20
93.6639
 30
0.0
 11
304.896
 21
93.5069
 31
0.0
  0
LINE
  8
0
 62
     0
 10
304.896
 20
93.5069
 30
0.0
 11
304.896
 21
2.25723
 31
0.0
  0
LINE
  8
0
 62
     0
 10
304.896
 20
2.25723
 30
0.0
 11
304.89
 21
2.10013
 31
0.0
  0
LINE
  8
0
 62
     0
 10
304.89
 20
2.10013
 30
0.0
 11
304.872
 21
1.94441
 31
0.0
  0
LINE
  8
0
 62
     0
 10
304.872
 20
1.94441
 30
0.0
 11
304.84
 21
1.79007
 31
0.0
  0
LINE
  8
0
 62
     0
 10
304.84
 20
1.79007
 30
0.0
 11
304.799
 21
1.63849
 31
0.0
  0
LINE
  8
0
 62
     0
 10
304.799
 20
1.63849
 30
0.0
 11
304.744
 21
1.49104
 31
0.0
  0
LINE
  8
0
 62
     0
 10
304.744
 20
1.49104
 30
0.0
 11
304.679
 21
1.3491
 31
0.0
  0
LINE
  8
0
 62
     0
 10
304.679
 20
1.3491
 30
0.0
 11
304.602
 21
1.21267
 31
0.0
  0
LINE
  8
0
 62
     0
 10
304.602
 20
1.21267
 30
0.0
 11
304.515
 21
1.08176
 31
0.0
  0
LINE
  8
0
 62
     0
 10
304.515
 20
1.08176
 30
0.0
 11
304.417
 21
0.957735
 31
0.0
  0
LINE
  8
0
 62
     0
 10
304.417
 20
0.957735
 30
0.0
 11
304.311
 21
0.841982
 31
0.0
  0
LINE
  8
0
 62
     0
 10
304.311
 20
0.841982
 30
0.0
 11
304.195
 21
0.735873
 31
0.0
  0
LINE
  8
0
 62
     0
 10
304.195
 20
0.735873
 30
0.0
 11
304.071
 21
0.63803
 31
0.0
  0
LINE
  8
0
 62
     0
 10
304.071
 20
0.63803
 30
0.0
 11
303.94
 21
0.551215
 31
0.0
  0
LINE
  8
0
 62
     0
 10
303.94
 20
0.551215
 30
0.0
 11
303.804
 21
0.474045
 31
0.0
  0
LINE
  8
0
 62
     0
 10
303.804
 20
0.474045
 30
0.0
 11
303.662
 21
0.409279
 31
0.0
  0
LINE
  8
0
 62
     0
 10
303.662
 20
0.409279
 30
0.0
 11
303.514
 21
0.354157
 31
0.0
  0
LINE
  8
0
 62
     0
 10
303.514
 20
0.354157
 30
0.0
 11
303.363
 21
0.312815
 31
0.0
  0
LINE
  8
0
 62
     0
 10
303.363
 20
0.312815
 30
0.0
 11
303.208
 21
0.28112
 31
0.0
  0
LINE
  8
0
 62
     0
 10
303.208
 20
0.28112
 30
0.0
 11
303.053
 21
0.263205
 31
0.0
  0
LINE
  8
0
 62
     0
 10
303.053
 20
0.263205
 30
0.0
 11
302.897
 21
0.257693
 31
0.0
  0
LINE
  8
0
 62
     0
 10
302.897
 20
0.257693
 30
0.0
 11
2.096
 21
0.257693
 31
0.0
  0
LINE
  8
0
 62
     0
 10
2.096
 20
0.257693
 30
0.0
 11
1.9389
 21
0.263205
 31
0.0
  0
LINE
  8
0
 62
     0
 10
1.9389
 20
0.263205
 30
0.0
 11
1.7818
 21
0.28112
 31
0.0
  0
LINE
  8
0
 62
     0
 10
1.7818
 20
0.28112
 30
0.0
 11
1.62884
 21
0.312815
 31
0.0
  0
LINE
  8
0
 62
     0
 10
1.62884
 20
0.312815
 30
0.0
 11
1.47588
 21
0.354157
 31
0.0
  0
LINE
  8
0
 62
     0
 10
1.47588
 20
0.354157
 30
0.0
 11
1.32981
 21
0.409279
 31
0.0
  0
LINE
  8
0
 62
     0
 10
1.32981
 20
0.409279
 30
0.0
 11
1.18787
 21
0.474045
 31
0.0
  0
LINE
  8
0
 62
     0
 10
1.18787
 20
0.474045
 30
0.0
 11
1.05006
 21
0.551215
 31
0.0
  0
LINE
  8
0
 62
     0
 10
1.05006
 20
0.551215
 30
0.0
 11
0.919152
 21
0.63803
 31
0.0
  0
LINE
  8
0
 62
     0
 10
0.919152
 20
0.63803
 30
0.0
 11
0.796505
 21
0.735873
 31
0.0
  0
LINE
  8
0
 62
     0
 10
0.796505
 20
0.735873
 30
0.0
 11
0.680752
 21
0.841982
 31
0.0
  0
LINE
  8
0
 62
     0
 10
0.680752
 20
0.841982
 30
0.0
 11
0.574643
 21
0.957735
 31
0.0
  0
LINE
  8
0
 62
     0
 10
0.574643
 20
0.957735
 30
0.0
 11
0.4768
 21
1.08176
 31
0.0
  0
LINE
  8
0
 62
     0
 10
0.4768
 20
1.08176
 30
0.0
 11
0.389985
 21
1.21267
 31
0.0
  0
LINE
  8
0
 62
     0
 10
0.389985
 20
1.21267
 30
0.0
 11
0.312815
 21
1.3491
 31
0.0
  0
LINE
  8
0
 62
     0
 10
0.312815
 20
1.3491
 30
0.0
 11
0.248047
 21
1.49104
 31
0.0
  0
LINE
  8
0
 62
     0
 10
0.248047
 20
1.49104
 30
0.0
 11
0.192925
 21
1.63849
 31
0.0
  0
LINE
  8
0
 62
     0
 10
0.192925
 20
1.63849
 30
0.0
 11
0.150206
 21
1.79007
 31
0.0
  0
LINE
  8
0
 62
     0
 10
0.150206
 20
1.79007
 30
0.0
 11
0.119889
 21
1.94441
 31
0.0
  0
LINE
  8
0
 62
     0
 10
0.119889
 20
1.94441
 30
0.0
 11
0.101975
 21
2.10013
 31
0.0
  0
LINE
  8
0
 62
     0
 10
0.101975
 20
2.10013
 30
0.0
 11
0.0950846
 21
2.25585
 31
0.0
  0
LINE
  8
0
 62
     0
 10
0.0950846
 20
2.25585
 30
0.0
 11
0.0950846
 21
93.5069
 31
0.0
  0
LINE
  8
0
 62
     0
 10
0.0950846
 20
93.5069
 30
0.0
 11
0.101975
 21
93.6639
 31
0.0
  0
LINE
  8
0
 62
     0
 10
0.101975
 20
93.6639
 30
0.0
 11
0.119889
 21
93.8209
 31
0.0
  0
LINE
  8
0
 62
     0
 10
0.119889
 20
93.8209
 30
0.0
 11
0.150206
 21
93.974
 31
0.0
  0
LINE
  8
0
 62
     0
 10
0.150206
 20
93.974
 30
0.0
 11
0.192925
 21
94.1268
 31
0.0
  0
LINE
  8
0
 62
     0
 10
0.192925
 20
94.1268
 30
0.0
 11
0.248047
 21
94.2728
 31
0.0
  0
LINE
  8
0
 62
     0
 10
0.248047
 20
94.2728
 30
0.0
 11
0.312815
 21
94.415
 31
0.0
  0
LINE
  8
0
 62
     0
 10
0.312815
 20
94.415
 30
0.0
 11
0.389985
 21
94.5526
 31
0.0
  0
LINE
  8
0
 62
     0
 10
0.389985
 20
94.5526
 30
0.0
 11
0.4768
 21
94.6838
 31
0.0
  0
LINE
  8
0
 62
     0
 10
0.4768
 20
94.6838
 30
0.0
 11
0.574643
 21
94.8062
 31
0.0
  0
LINE
  8
0
 62
     0
 10
0.574643
 20
94.8062
 30
0.0
 11
0.680752
 21
94.9219
 31
0.0
  0
LINE
  8
0
 62
     0
 10
0.680752
 20
94.9219
 30
0.0
 11
0.796505
 21
95.0281
 31
0.0
  0
LINE
  8
0
 62
     0
 10
0.796505
 20
95.0281
 30
0.0
 11
0.919152
 21
95.1258
 31
0.0
  0
LINE
  8
0
 62
     0
 10
0.919152
 20
95.1258
 30
0.0
 11
1.05006
 21
95.213
 31
0.0
  0
LINE
  8
0
 62
     0
 10
1.05006
 20
95.213
 30
0.0
 11
1.18787
 21
95.2899
 31
0.0
  0
LINE
  8
0
 62
     0
 10
1.18787
 20
95.2899
 30
0.0
 11
1.32981
 21
95.3548
 31
0.0
  0
LINE
  8
0
 62
     0
 10
1.32981
 20
95.3548
 30
0.0
 11
1.47588
 21
95.4098
 31
0.0
  0
LINE
  8
0
 62
     0
 10
1.47588
 20
95.4098
 30
0.0
 11
1.62884
 21
95.4525
 31
0.0
  0
LINE
  8
0
 62
     0
 10
1.62884
 20
95.4525
 30
0.0
 11
1.7818
 21
95.4828
 31
0.0
  0
LINE
  8
0
 62
     0
 10
1.7818
 20
95.4828
 30
0.0
 11
1.9389
 21
95.5008
 31
0.0
  0
LINE
  8
0
 62
     0
 10
1.9389
 20
95.5008
 30
0.0
 11
2.096
 21
95.5075
 31
0.0
  0
LINE
  8
0
 62
     0
 10
2.096
 20
95.5075
 30
0.0
 11
302.897
 21
95.5075
 31
0.0
  0
LINE
  8
0
 62
     0
 10
288.371
 20
16.7817
 30
0.0
 11
302.37
 21
16.7817
 31
0.0
  0
LINE
  8
0
 62
     0
 10
302.37
 20
16.7817
 30
0.0
 11
302.37
 21
2.78226
 31
0.0
  0
LINE
  8
0
 62
     0
 10
302.37
 20
2.78226
 30
0.0
 11
288.371
 21
2.78226
 31
0.0
  0
LINE
  8
0
 62
     0
 10
288.371
 20
2.78226
 30
0.0
 11
288.371
 21
16.7817
 31
0.0
  0
LINE
  8
0
 62
     0
 10
269.321
 20
16.7817
 30
0.0
 11
283.32
 21
16.7817
 31
0.0
  0
LINE
  8
0
 62
     0
 10
283.32
 20
16.7817
 30
0.0
 11
283.32
 21
2.78226
 31
0.0
  0
LINE
  8
0
 62
     0
 10
283.32
 20
2.78226
 30
0.0
 11
269.321
 21
2.78226
 31
0.0
  0
LINE
  8
0
 62
     0
 10
269.321
 20
2.78226
 30
0.0
 11
269.321
 21
16.7817
 31
0.0
  0
LINE
  8
0
 62
     0
 10
250.271
 20
16.7817
 30
0.0
 11
264.27
 21
16.7817
 31
0.0
  0
LINE
  8
0
 62
     0
 10
264.27
 20
16.7817
 30
0.0
 11
264.27
 21
2.78226
 31
0.0
  0
LINE
  8
0
 62
     0
 10
264.27
 20
2.78226
 30
0.0
 11
250.271
 21
2.78226
 31
0.0
  0
LINE
  8
0
 62
     0
 10
250.271
 20
2.78226
 30
0.0
 11
250.271
 21
16.7817
 31
0.0
  0
LINE
  8
0
 62
     0
 10
231.221
 20
16.7817
 30
0.0
 11
245.22
 21
16.7817
 31
0.0
  0
LINE
  8
0
 62
     0
 10
245.22
 20
16.7817
 30
0.0
 11
245.22
 21
2.78226
 31
0.0
  0
LINE
  8
0
 62
     0
 10
245.22
 20
2.78226
 30
0.0
 11
231.221
 21
2.78226
 31
0.0
  0
LINE
  8
0
 62
     0
 10
231.221
 20
2.78226
 30
0.0
 11
231.221
 21
16.7817
 31
0.0
  0
LINE
  8
0
 62
     0
 10
212.171
 20
16.7817
 30
0.0
 11
226.17
 21
16.7817
 31
0.0
  0
LINE
  8
0
 62
     0
 10
226.17
 20
16.7817
 30
0.0
 11
226.17
 21
2.78226
 31
0.0
  0
LINE
  8
0
 62
     0
 10
226.17
 20
2.78226
 30
0.0
 11
212.171
 21
2.78226
 31
0.0
  0
LINE
  8
0
 62
     0
 10
212.171
 20
2.78226
 30
0.0
 11
212.171
 21
16.7817
 31
0.0
  0
LINE
  8
0
 62
     0
 10
193.121
 20
16.7817
 30
0.0
 11
207.12
 21
16.7817
 31
0.0
  0
LINE
  8
0
 62
     0
 10
207.12
 20
16.7817
 30
0.0
 11
207.12
 21
2.78226
 31
0.0
  0
LINE
  8
0
 62
     0
 10
207.12
 20
2.78226
 30
0.0
 11
193.121
 21
2.78226
 31
0.0
  0
LINE
  8
0
 62
     0
 10
193.121
 20
2.78226
 30
0.0
 11
193.121
 21
16.7817
 31
0.0
  0
LINE
  8
0
 62
     0
 10
174.071
 20
16.7817
 30
0.0
 11
188.07
 21
16.7817
 31
0.0
  0
LINE
  8
0
 62
     0
 10
188.07
 20
16.7817
 30
0.0
 11
188.07
 21
2.78226
 31
0.0
  0
LINE
  8
0
 62
     0
 10
188.07
 20
2.78226
 30
0.0
 11
174.071
 21
2.78226
 31
0.0
  0
LINE
  8
0
 62
     0
 10
174.071
 20
2.78226
 30
0.0
 11
174.071
 21
16.7817
 31
0.0
  0
LINE
  8
0
 62
     0
 10
155.021
 20
16.7817
 30
0.0
 11
169.02
 21
16.7817
 31
0.0
  0
LINE
  8
0
 62
     0
 10
169.02
 20
16.7817
 30
0.0
 11
169.02
 21
2.78226
 31
0.0
  0
LINE
  8
0
 62
     0
 10
169.02
 20
2.78226
 30
0.0
 11
155.021
 21
2.78226
 31
0.0
  0
LINE
  8
0
 62
     0
 10
155.021
 20
2.78226
 30
0.0
 11
155.021
 21
16.7817
 31
0.0
  0
LINE
  8
0
 62
     0
 10
135.971
 20
16.7817
 30
0.0
 11
149.97
 21
16.7817
 31
0.0
  0
LINE
  8
0
 62
     0
 10
149.97
 20
16.7817
 30
0.0
 11
149.97
 21
2.78226
 31
0.0
  0
LINE
  8
0
 62
     0
 10
149.97
 20
2.78226
 30
0.0
 11
135.971
 21
2.78226
 31
0.0
  0
LINE
  8
0
 62
     0
 10
135.971
 20
2.78226
 30
0.0
 11
135.971
 21
16.7817
 31
0.0
  0
LINE
  8
0
 62
     0
 10
116.92
 20
16.7817
 30
0.0
 11
130.92
 21
16.7817
 31
0.0
  0
LINE
  8
0
 62
     0
 10
130.92
 20
16.7817
 30
0.0
 11
130.92
 21
2.78226
 31
0.0
  0
LINE
  8
0
 62
     0
 10
130.92
 20
2.78226
 30
0.0
 11
116.92
 21
2.78226
 31
0.0
  0
LINE
  8
0
 62
     0
 10
116.92
 20
2.78226
 30
0.0
 11
116.92
 21
16.7817
 31
0.0
  0
LINE
  8
0
 62
     0
 10
97.8697
 20
16.7817
 30
0.0
 11
111.869
 21
16.7817
 31
0.0
  0
LINE
  8
0
 62
     0
 10
111.869
 20
16.7817
 30
0.0
 11
111.869
 21
2.78226
 31
0.0
  0
LINE
  8
0
 62
     0
 10
111.869
 20
2.78226
 30
0.0
 11
97.8697
 21
2.78226
 31
0.0
  0
LINE
  8
0
 62
     0
 10
97.8697
 20
2.78226
 30
0.0
 11
97.8697
 21
16.7817
 31
0.0
  0
LINE
  8
0
 62
     0
 10
78.8211
 20
16.7817
 30
0.0
 11
92.8204
 21
16.7817
 31
0.0
  0
LINE
  8
0
 62
     0
 10
92.8204
 20
16.7817
 30
0.0
 11
92.8204
 21
2.78226
 31
0.0
  0
LINE
  8
0
 62
     0
 10
92.8204
 20
2.78226
 30
0.0
 11
78.8211
 21
2.78226
 31
0.0
  0
LINE
  8
0
 62
     0
 10
78.8211
 20
2.78226
 30
0.0
 11
78.8211
 21
16.7817
 31
0.0
  0
LINE
  8
0
 62
     0
 10
59.7711
 20
16.7817
 30
0.0
 11
73.7704
 21
16.7817
 31
0.0
  0
LINE
  8
0
 62
     0
 10
73.7704
 20
16.7817
 30
0.0
 11
73.7704
 21
2.78226
 31
0.0
  0
LINE
  8
0
 62
     0
 10
73.7704
 20
2.78226
 30
0.0
 11
59.7711
 21
2.78226
 31
0.0
  0
LINE
  8
0
 62
     0
 10
59.7711
 20
2.78226
 30
0.0
 11
59.7711
 21
16.7817
 31
0.0
  0
LINE
  8
0
 62
     0
 10
40.7211
 20
16.7817
 30
0.0
 11
54.7204
 21
16.7817
 31
0.0
  0
LINE
  8
0
 62
     0
 10
54.7204
 20
16.7817
 30
0.0
 11
54.7204
 21
2.78226
 31
0.0
  0
LINE
  8
0
 62
     0
 10
54.7204
 20
2.78226
 30
0.0
 11
40.7211
 21
2.78226
 31
0.0
  0
LINE
  8
0
 62
     0
 10
40.7211
 20
2.78226
 30
0.0
 11
40.7211
 21
16.7817
 31
0.0
  0
LINE
  8
0
 62
     0
 10
278.846
 20
35.8316
 30
0.0
 11
292.845
 21
35.8316
 31
0.0
  0
LINE
  8
0
 62
     0
 10
292.845
 20
35.8316
 30
0.0
 11
292.845
 21
21.8323
 31
0.0
  0
LINE
  8
0
 62
     0
 10
292.845
 20
21.8323
 30
0.0
 11
278.846
 21
21.8323
 31
0.0
  0
LINE
  8
0
 62
     0
 10
278.846
 20
21.8323
 30
0.0
 11
278.846
 21
35.8316
 31
0.0
  0
LINE
  8
0
 62
     0
 10
259.796
 20
35.8316
 30
0.0
 11
273.795
 21
35.8316
 31
0.0
  0
LINE
  8
0
 62
     0
 10
273.795
 20
35.8316
 30
0.0
 11
273.795
 21
21.8323
 31
0.0
  0
LINE
  8
0
 62
     0
 10
273.795
 20
21.8323
 30
0.0
 11
259.796
 21
21.8323
 31
0.0
  0
LINE
  8
0
 62
     0
 10
259.796
 20
21.8323
 30
0.0
 11
259.796
 21
35.8316
 31
0.0
  0
LINE
  8
0
 62
     0
 10
221.696
 20
35.8316
 30
0.0
 11
235.695
 21
35.8316
 31
0.0
  0
LINE
  8
0
 62
     0
 10
235.695
 20
35.8316
 30
0.0
 11
235.695
 21
21.8323
 31
0.0
  0
LINE
  8
0
 62
     0
 10
235.695
 20
21.8323
 30
0.0
 11
221.696
 21
21.8323
 31
0.0
  0
LINE
  8
0
 62
     0
 10
221.696
 20
21.8323
 30
0.0
 11
221.696
 21
35.8316
 31
0.0
  0
LINE
  8
0
 62
     0
 10
202.646
 20
35.8316
 30
0.0
 11
216.645
 21
35.8316
 31
0.0
  0
LINE
  8
0
 62
     0
 10
216.645
 20
35.8316
 30
0.0
 11
216.645
 21
21.8323
 31
0.0
  0
LINE
  8
0
 62
     0
 10
216.645
 20
21.8323
 30
0.0
 11
202.646
 21
21.8323
 31
0.0
  0
LINE
  8
0
 62
     0
 10
202.646
 20
21.8323
 30
0.0
 11
202.646
 21
35.8316
 31
0.0
  0
LINE
  8
0
 62
     0
 10
183.596
 20
35.8316
 30
0.0
 11
197.595
 21
35.8316
 31
0.0
  0
LINE
  8
0
 62
     0
 10
197.595
 20
35.8316
 30
0.0
 11
197.595
 21
21.8323
 31
0.0
  0
LINE
  8
0
 62
     0
 10
197.595
 20
21.8323
 30
0.0
 11
183.596
 21
21.8323
 31
0.0
  0
LINE
  8
0
 62
     0
 10
183.596
 20
21.8323
 30
0.0
 11
183.596
 21
35.8316
 31
0.0
  0
LINE
  8
0
 62
     0
 10
145.496
 20
35.8316
 30
0.0
 11
159.495
 21
35.8316
 31
0.0
  0
LINE
  8
0
 62
     0
 10
159.495
 20
35.8316
 30
0.0
 11
159.495
 21
21.8323
 31
0.0
  0
LINE
  8
0
 62
     0
 10
159.495
 20
21.8323
 30
0.0
 11
145.496
 21
21.8323
 31
0.0
  0
LINE
  8
0
 62
     0
 10
145.496
 20
21.8323
 30
0.0
 11
145.496
 21
35.8316
 31
0.0
  0
LINE
  8
0
 62
     0
 10
126.446
 20
35.8316
 30
0.0
 11
140.445
 21
35.8316
 31
0.0
  0
LINE
  8
0
 62
     0
 10
140.445
 20
35.8316
 30
0.0
 11
140.445
 21
21.8323
 31
0.0
  0
LINE
  8
0
 62
     0
 10
140.445
 20
21.8323
 30
0.0
 11
126.446
 21
21.8323
 31
0.0
  0
LINE
  8
0
 62
     0
 10
126.446
 20
21.8323
 30
0.0
 11
126.446
 21
35.8316
 31
0.0
  0
LINE
  8
0
 62
     0
 10
88.3461
 20
35.8316
 30
0.0
 11
102.345
 21
35.8316
 31
0.0
  0
LINE
  8
0
 62
     0
 10
102.345
 20
35.8316
 30
0.0
 11
102.345
 21
21.8323
 31
0.0
  0
LINE
  8
0
 62
     0
 10
102.345
 20
21.8323
 30
0.0
 11
88.3461
 21
21.8323
 31
0.0
  0
LINE
  8
0
 62
     0
 10
88.3461
 20
21.8323
 30
0.0
 11
88.3461
 21
35.8316
 31
0.0
  0
LINE
  8
0
 62
     0
 10
69.2961
 20
35.8316
 30
0.0
 11
83.2954
 21
35.8316
 31
0.0
  0
LINE
  8
0
 62
     0
 10
83.2954
 20
35.8316
 30
0.0
 11
83.2954
 21
21.8323
 31
0.0
  0
LINE
  8
0
 62
     0
 10
83.2954
 20
21.8323
 30
0.0
 11
69.2961
 21
21.8323
 31
0.0
  0
LINE
  8
0
 62
     0
 10
69.2961
 20
21.8323
 30
0.0
 11
69.2961
 21
35.8316
 31
0.0
  0
LINE
  8
0
 62
     0
 10
50.2461
 20
35.8316
 30
0.0
 11
64.2454
 21
35.8316
 31
0.0
  0
LINE
  8
0
 62
     0
 10
64.2454
 20
35.8316
 30
0.0
 11
64.2454
 21
21.8323
 31
0.0
  0
LINE
  8
0
 62
     0
 10
64.2454
 20
21.8323
 30
0.0
 11
50.2461
 21
21.8323
 31
0.0
  0
LINE
  8
0
 62
     0
 10
50.2461
 20
21.8323
 30
0.0
 11
50.2461
 21
35.8316
 31
0.0
  0
LINE
  8
0
 62
     0
 10
288.371
 20
54.8816
 30
0.0
 11
302.37
 21
54.8816
 31
0.0
  0
LINE
  8
0
 62
     0
 10
302.37
 20
54.8816
 30
0.0
 11
302.37
 21
40.8824
 31
0.0
  0
LINE
  8
0
 62
     0
 10
302.37
 20
40.8824
 30
0.0
 11
288.371
 21
40.8824
 31
0.0
  0
LINE
  8
0
 62
     0
 10
288.371
 20
40.8824
 30
0.0
 11
288.371
 21
54.8816
 31
0.0
  0
LINE
  8
0
 62
     0
 10
269.321
 20
54.8816
 30
0.0
 11
283.32
 21
54.8816
 31
0.0
  0
LINE
  8
0
 62
     0
 10
283.32
 20
54.8816
 30
0.0
 11
283.32
 21
40.8824
 31
0.0
  0
LINE
  8
0
 62
     0
 10
283.32
 20
40.8824
 30
0.0
 11
269.321
 21
40.8824
 31
0.0
  0
LINE
  8
0
 62
     0
 10
269.321
 20
40.8824
 30
0.0
 11
269.321
 21
54.8816
 31
0.0
  0
LINE
  8
0
 62
     0
 10
250.271
 20
54.8816
 30
0.0
 11
264.27
 21
54.8816
 31
0.0
  0
LINE
  8
0
 62
     0
 10
264.27
 20
54.8816
 30
0.0
 11
264.27
 21
40.8824
 31
0.0
  0
LINE
  8
0
 62
     0
 10
264.27
 20
40.8824
 30
0.0
 11
250.271
 21
40.8824
 31
0.0
  0
LINE
  8
0
 62
     0
 10
250.271
 20
40.8824
 30
0.0
 11
250.271
 21
54.8816
 31
0.0
  0
LINE
  8
0
 62
     0
 10
231.221
 20
54.8816
 30
0.0
 11
245.22
 21
54.8816
 31
0.0
  0
LINE
  8
0
 62
     0
 10
245.22
 20
54.8816
 30
0.0
 11
245.22
 21
40.8824
 31
0.0
  0
LINE
  8
0
 62
     0
 10
245.22
 20
40.8824
 30
0.0
 11
231.221
 21
40.8824
 31
0.0
  0
LINE
  8
0
 62
     0
 10
231.221
 20
40.8824
 30
0.0
 11
231.221
 21
54.8816
 31
0.0
  0
LINE
  8
0
 62
     0
 10
212.171
 20
54.8816
 30
0.0
 11
226.17
 21
54.8816
 31
0.0
  0
LINE
  8
0
 62
     0
 10
226.17
 20
54.8816
 30
0.0
 11
226.17
 21
40.8824
 31
0.0
  0
LINE
  8
0
 62
     0
 10
226.17
 20
40.8824
 30
0.0
 11
212.171
 21
40.8824
 31
0.0
  0
LINE
  8
0
 62
     0
 10
212.171
 20
40.8824
 30
0.0
 11
212.171
 21
54.8816
 31
0.0
  0
LINE
  8
0
 62
     0
 10
193.121
 20
54.8816
 30
0.0
 11
207.12
 21
54.8816
 31
0.0
  0
LINE
  8
0
 62
     0
 10
207.12
 20
54.8816
 30
0.0
 11
207.12
 21
40.8824
 31
0.0
  0
LINE
  8
0
 62
     0
 10
207.12
 20
40.8824
 30
0.0
 11
193.121
 21
40.8824
 31
0.0
  0
LINE
  8
0
 62
     0
 10
193.121
 20
40.8824
 30
0.0
 11
193.121
 21
54.8816
 31
0.0
  0
LINE
  8
0
 62
     0
 10
174.071
 20
54.8816
 30
0.0
 11
188.07
 21
54.8816
 31
0.0
  0
LINE
  8
0
 62
     0
 10
188.07
 20
54.8816
 30
0.0
 11
188.07
 21
40.8824
 31
0.0
  0
LINE
  8
0
 62
     0
 10
188.07
 20
40.8824
 30
0.0
 11
174.071
 21
40.8824
 31
0.0
  0
LINE
  8
0
 62
     0
 10
174.071
 20
40.8824
 30
0.0
 11
174.071
 21
54.8816
 31
0.0
  0
LINE
  8
0
 62
     0
 10
155.021
 20
54.8816
 30
0.0
 11
169.02
 21
54.8816
 31
0.0
  0
LINE
  8
0
 62
     0
 10
169.02
 20
54.8816
 30
0.0
 11
169.02
 21
40.8824
 31
0.0
  0
LINE
  8
0
 62
     0
 10
169.02
 20
40.8824
 30
0.0
 11
155.021
 21
40.8824
 31
0.0
  0
LINE
  8
0
 62
     0
 10
155.021
 20
40.8824
 30
0.0
 11
155.021
 21
54.8816
 31
0.0
  0
LINE
  8
0
 62
     0
 10
135.971
 20
54.8816
 30
0.0
 11
149.97
 21
54.8816
 31
0.0
  0
LINE
  8
0
 62
     0
 10
149.97
 20
54.8816
 30
0.0
 11
149.97
 21
40.8824
 31
0.0
  0
LINE
  8
0
 62
     0
 10
149.97
 20
40.8824
 30
0.0
 11
135.971
 21
40.8824
 31
0.0
  0
LINE
  8
0
 62
     0
 10
135.971
 20
40.8824
 30
0.0
 11
135.971
 21
54.8816
 31
0.0
  0
LINE
  8
0
 62
     0
 10
116.921
 20
54.8816
 30
0.0
 11
130.92
 21
54.8816
 31
0.0
  0
LINE
  8
0
 62
     0
 10
130.92
 20
54.8816
 30
0.0
 11
130.92
 21
40.8824
 31
0.0
  0
LINE
  8
0
 62
     0
 10
130.92
 20
40.8824
 30
0.0
 11
116.921
 21
40.8824
 31
0.0
  0
LINE
  8
0
 62
     0
 10
116.921
 20
40.8824
 30
0.0
 11
116.921
 21
54.8816
 31
0.0
  0
LINE
  8
0
 62
     0
 10
97.8711
 20
54.8816
 30
0.0
 11
111.87
 21
54.8816
 31
0.0
  0
LINE
  8
0
 62
     0
 10
111.87
 20
54.8816
 30
0.0
 11
111.87
 21
40.8824
 31
0.0
  0
LINE
  8
0
 62
     0
 10
111.87
 20
40.8824
 30
0.0
 11
97.8711
 21
40.8824
 31
0.0
  0
LINE
  8
0
 62
     0
 10
97.8711
 20
40.8824
 30
0.0
 11
97.8711
 21
54.8816
 31
0.0
  0
LINE
  8
0
 62
     0
 10
155.021
 20
73.9316
 30
0.0
 11
169.02
 21
73.9316
 31
0.0
  0
LINE
  8
0
 62
     0
 10
169.02
 20
73.9316
 30
0.0
 11
169.02
 21
59.9324
 31
0.0
  0
LINE
  8
0
 62
     0
 10
169.02
 20
59.9324
 30
0.0
 11
155.021
 21
59.9324
 31
0.0
  0
LINE
  8
0
 62
     0
 10
155.021
 20
59.9324
 30
0.0
 11
155.021
 21
73.9316
 31
0.0
  0
LINE
  8
0
 62
     0
 10
135.971
 20
73.9316
 30
0.0
 11
149.97
 21
73.9316
 31
0.0
  0
LINE
  8
0
 62
     0
 10
149.97
 20
73.9316
 30
0.0
 11
149.97
 21
59.9324
 31
0.0
  0
LINE
  8
0
 62
     0
 10
149.97
 20
59.9324
 30
0.0
 11
135.971
 21
59.9324
 31
0.0
  0
LINE
  8
0
 62
     0
 10
135.971
 20
59.9324
 30
0.0
 11
135.971
 21
73.9316
 31
0.0
  0
LINE
  8
0
 62
     0
 10
116.921
 20
73.9316
 30
0.0
 11
130.92
 21
73.9316
 31
0.0
  0
LINE
  8
0
 62
     0
 10
130.92
 20
73.9316
 30
0.0
 11
130.92
 21
59.9324
 31
0.0
  0
LINE
  8
0
 62
     0
 10
130.92
 20
59.9324
 30
0.0
 11
116.921
 21
59.9324
 31
0.0
  0
LINE
  8
0
 62
     0
 10
116.921
 20
59.9324
 30
0.0
 11
116.921
 21
73.9316
 31
0.0
  0
LINE
  8
0
 62
     0
 10
97.8711
 20
73.9316
 30
0.0
 11
111.87
 21
73.9316
 31
0.0
  0
LINE
  8
0
 62
     0
 10
111.87
 20
73.9316
 30
0.0
 11
111.87
 21
59.9324
 31
0.0
  0
LINE
  8
0
 62
     0
 10
111.87
 20
59.9324
 30
0.0
 11
97.8711
 21
59.9324
 31
0.0
  0
LINE
  8
0
 62
     0
 10
97.8711
 20
59.9324
 30
0.0
 11
97.8711
 21
73.9316
 31
0.0
  0
LINE
  8
0
 62
     0
 10
288.371
 20
92.9816
 30
0.0
 11
302.37
 21
92.9816
 31
0.0
  0
LINE
  8
0
 62
     0
 10
302.37
 20
92.9816
 30
0.0
 11
302.37
 21
78.9824
 31
0.0
  0
LINE
  8
0
 62
     0
 10
302.37
 20
78.9824
 30
0.0
 11
288.371
 21
78.9824
 31
0.0
  0
LINE
  8
0
 62
     0
 10
288.371
 20
78.9824
 30
0.0
 11
288.371
 21
92.9816
 31
0.0
  0
LINE
  8
0
 62
     0
 10
255.032
 20
92.9816
 30
0.0
 11
269.033
 21
92.9816
 31
0.0
  0
LINE
  8
0
 62
     0
 10
269.033
 20
92.9816
 30
0.0
 11
269.033
 21
78.9824
 31
0.0
  0
LINE
  8
0
 62
     0
 10
269.033
 20
78.9824
 30
0.0
 11
255.032
 21
78.9824
 31
0.0
  0
LINE
  8
0
 62
     0
 10
255.032
 20
78.9824
 30
0.0
 11
255.032
 21
92.9816
 31
0.0
  0
LINE
  8
0
 62
     0
 10
221.696
 20
92.9816
 30
0.0
 11
235.695
 21
92.9816
 31
0.0
  0
LINE
  8
0
 62
     0
 10
235.695
 20
92.9816
 30
0.0
 11
235.695
 21
78.9824
 31
0.0
  0
LINE
  8
0
 62
     0
 10
235.695
 20
78.9824
 30
0.0
 11
221.696
 21
78.9824
 31
0.0
  0
LINE
  8
0
 62
     0
 10
221.696
 20
78.9824
 30
0.0
 11
221.696
 21
92.9816
 31
0.0
  0
LINE
  8
0
 62
     0
 10
188.357
 20
92.9816
 30
0.0
 11
202.358
 21
92.9816
 31
0.0
  0
LINE
  8
0
 62
     0
 10
202.358
 20
92.9816
 30
0.0
 11
202.358
 21
78.9824
 31
0.0
  0
LINE
  8
0
 62
     0
 10
202.358
 20
78.9824
 30
0.0
 11
188.357
 21
78.9824
 31
0.0
  0
LINE
  8
0
 62
     0
 10
188.357
 20
78.9824
 30
0.0
 11
188.357
 21
92.9816
 31
0.0
  0
LINE
  8
0
 62
     0
 10
155.021
 20
92.9816
 30
0.0
 11
169.02
 21
92.9816
 31
0.0
  0
LINE
  8
0
 62
     0
 10
169.02
 20
92.9816
 30
0.0
 11
169.02
 21
78.9824
 31
0.0
  0
LINE
  8
0
 62
     0
 10
169.02
 20
78.9824
 30
0.0
 11
155.021
 21
78.9824
 31
0.0
  0
LINE
  8
0
 62
     0
 10
155.021
 20
78.9824
 30
0.0
 11
155.021
 21
92.9816
 31
0.0
  0
LINE
  8
0
 62
     0
 10
135.971
 20
92.9816
 30
0.0
 11
149.97
 21
92.9816
 31
0.0
  0
LINE
  8
0
 62
     0
 10
149.97
 20
92.9816
 30
0.0
 11
149.97
 21
78.9824
 31
0.0
  0
LINE
  8
0
 62
     0
 10
149.97
 20
78.9824
 30
0.0
 11
135.971
 21
78.9824
 31
0.0
  0
LINE
  8
0
 62
     0
 10
135.971
 20
78.9824
 30
0.0
 11
135.971
 21
92.9816
 31
0.0
  0
LINE
  8
0
 62
     0
 10
116.921
 20
92.9816
 30
0.0
 11
130.92
 21
92.9816
 31
0.0
  0
LINE
  8
0
 62
     0
 10
130.92
 20
92.9816
 30
0.0
 11
130.92
 21
78.9824
 31
0.0
  0
LINE
  8
0
 62
     0
 10
130.92
 20
78.9824
 30
0.0
 11
116.921
 21
78.9824
 31
0.0
  0
LINE
  8
0
 62
     0
 10
116.921
 20
78.9824
 30
0.0
 11
116.921
 21
92.9816
 31
0.0
  0
LINE
  8
0
 62
     0
 10
97.8711
 20
92.9816
 30
0.0
 11
111.87
 21
92.9816
 31
0.0
  0
LINE
  8
0
 62
     0
 10
111.87
 20
92.9816
 30
0.0
 11
111.87
 21
78.9824
 31
0.0
  0
LINE
  8
0
 62
     0
 10
111.87
 20
78.9824
 30
0.0
 11
97.8711
 21
78.9824
 31
0.0
  0
LINE
  8
0
 62
     0
 10
97.8711
 20
78.9824
 30
0.0
 11
97.8711
 21
92.9816
 31
0.0
  0
ENDSEC
  0
EOF
