999
FreeCAD v0.19 24366 (Git)
  0
SECTION
  2
HEADER
  9
$ACADVER
  1
AC1014
  9
$ACADMAINTVER
 70
     9
  9
$DWGCODEPAGE
  3
ANSI_1252
  9
$TEXTSTYLE
  7
STANDARD
  9
$DIMSTYLE
  2
STANDARD
  9
$DIMTXSTY
  7
STANDARD
  9
$CMLSTYLE
  2
STANDARD
  9
$PEXTMAX
 10
50
 20
50
 30
50
  9
$PEXTMIN
 10
0
 20
0
 30
0
  9
$HANDSEED
  5
FFFF
  0
ENDSEC
  0
SECTION
  2
CLASSES
  0
CLASS
  1
ACDBDICTIONARYWDFLT
  2
AcDbDictionaryWithDefault
  3
ObjectDBX Classes
 90
        0
280
     0
281
     0
  0
CLASS
  1
XRECORD
  2
AcDbXrecord
  3
ObjectDBX Classes
 90
        0
280
     0
281
     0
  0
CLASS
  1
LWPOLYLINE
  2
AcDbPolyline
  3
ObjectDBX Classes
 90
        0
280
     0
281
     1
  0
ENDSEC
  0
SECTION
  2
TABLES
  0
TABLE
  2
VPORT
  5
20
330
0
100
AcDbSymbolTable
 70
     1
  0
VPORT
  5
21
330
20
100
AcDbSymbolTableRecord
100
AcDbViewportTableRecord
  2
*ACTIVE
 70
     0
  0
ENDTAB
  0
TABLE
  2
LTYPE
  5
22
330
0
100
AcDbSymbolTable
 70
     1
  0
LTYPE
  5
23
330
21
100
AcDbSymbolTableRecord
100
AcDbLinetypeTableRecord
  2
BYBLOCK
 70
     0
  3

 72
    65
 73
     0
 40
0.0
  0
LTYPE
  5
24
330
21
100
AcDbSymbolTableRecord
100
AcDbLinetypeTableRecord
  2
BYLAYER
 70
     0
  3

 72
    65
 73
     0
 40
0.0
  0
LTYPE
  5
25
330
21
100
AcDbSymbolTableRecord
100
AcDbLinetypeTableRecord
  2
CONTINUOUS
 70
     0
  3
Solid line
 72
    65
 73
     0
 40
0.0
  0
ENDTAB
  0
TABLE
  2
LAYER
  5
AE1
330
0
100
AcDbSymbolTable
 70
3
  0
LAYER
  5
AE2
330
AE1
100
AcDbSymbolTableRecord
100
AcDbLayerTableRecord
  2
0
 70
   0
 62
   7
  6
CONTINUOUS
  0
LAYER
  5
AE3
330
AE1
100
AcDbSymbolTableRecord
100
AcDbLayerTableRecord
  2
none
 70
    0
 62
    7
  6
CONTINUOUS
  0
LAYER
  5
AE4
330
AE1
100
AcDbSymbolTableRecord
100
AcDbLayerTableRecord
  2
Sketch008
 70
    0
 62
    7
  6
CONTINUOUS
  0
ENDTAB
  0
TABLE
  2
STYLE
  5
70
330
0
100
AcDbSymbolTable
 70
     2
  0
STYLE
  5
71
330
70
100
AcDbSymbolTableRecord
100
AcDbTextStyleTableRecord
  2
STANDARD
 70
     0
 40
0.0
 41
1.0
 50
0.0
 71
     0
 42
2.5
  3
arial.ttf
  4

  0
STYLE
  5
72
330
70
100
AcDbSymbolTableRecord
100
AcDbTextStyleTableRecord
  2
ANNOTATIVE
 70
     0
 40
0.0
 41
1.0
 50
0.0
 71
     0
 42
2.5
  3
arial.ttf
  4

  0
ENDTAB
  0
TABLE
  2
VIEW
  5
73
330
0
100
AcDbSymbolTable
 70
     0
  0
ENDTAB
  0
TABLE
  2
UCS
  5
74
330
0
100
AcDbSymbolTable
 70
     0
  0
ENDTAB
  0
TABLE
  2
APPID
  5
75
330
0
100
AcDbSymbolTable
 70
     2
  0
APPID
  5
76
330
75
100
AcDbSymbolTableRecord
100
AcDbRegAppTableRecord
  2
ACAD
 70
     0
  0
APPID
  5
77
330
75
100
AcDbSymbolTableRecord
100
AcDbRegAppTableRecord
  2
ACADANNOTATIVE
 70
     0
  0
ENDTAB
  0
TABLE
  2
DIMSTYLE
  5
78
330
0
100
AcDbSymbolTable
 70
     2
  0
DIMSTYLE
105
79
330
78
100
AcDbSymbolTableRecord
100
AcDbDimStyleTableRecord
  2
STANDARD
 70
     0
  3

  4

  5

  6

  7

 40
0.0
 41
2.5
 42
0.625
 43
3.75
 44
1.25
 45
0.0
 46
0.0
 47
0.0
 48
0.0
140
2.5
141
2.5
142
0.0
143
0.03937007874016
144
1.0
145
0.0
146
1.0
147
0.625
 71
     0
 72
     0
 73
     0
 74
     0
 75
     0
 76
     0
 77
     1
 78
     8
170
     0
171
     3
172
     1
173
     0
174
     0
175
     0
176
     0
177
     0
178
     0
270
     2
271
     2
272
     2
273
     2
274
     3
340
71
275
     0
280
     0
281
     0
282
     0
283
     0
284
     8
285
     0
286
     0
287
     3
288
     0
  0
ENDTAB
  0
TABLE
  2
BLOCK_RECORD
  5
A01
330
0
100
AcDbSymbolTable
  70
5
  0
BLOCK_RECORD
  5
A02
330
A01
100
AcDbSymbolTableRecord
100
AcDbBlockTableRecord
  2
*MODEL_SPACE
  0
BLOCK_RECORD
  5
A03
330
A01
100
AcDbSymbolTableRecord
100
AcDbBlockTableRecord
  2
*PAPER_SPACE
  0
ENDTAB
  0
ENDSEC
  0
SECTION
  2
BLOCKS
  0
BLOCK
  5
A04
330
A02
100
AcDbEntity
  8
0
100
AcDbBlockBegin
  2
*MODEL_SPACE
 70
   0
 10
0
 20
0
 30
0
  3
*MODEL_SPACE
  1
 
  0
ENDBLK
  5
A05
330
A02
100
AcDbEntity
  8
0
100
AcDbBlockEnd
  0
BLOCK
  5
A06
330
A03
100
AcDbEntity
 67
1
  8
0
100
AcDbBlockBegin
  2
*PAPER_SPACE
 70
   0
 10
0
 20
0
 30
0
  3
*PAPER_SPACE
  1
 
  0
ENDBLK
  5
A07
330
A03
100
AcDbEntity
 67
    1
  8
0
100
AcDbBlockEnd
  0
ENDSEC
  0
SECTION
  2
ENTITIES
  0
LINE
  5
A08
330
A02
100
AcDbEntity
  8
Sketch008
100
AcDbLine
 10
81.5225
 20
17.4775
 30
0
 11
301.228
 21
17.4775
 31
0
  0
ARC
  5
A09
330
A02
100
AcDbEntity
  8
Sketch008
100
AcDbCircle
 10
301.228
 20
15.4775
 30
0
 40
2
100
AcDbArc
 50
0
 51
90
  0
LINE
  5
A0A
330
A02
100
AcDbEntity
  8
Sketch008
100
AcDbLine
 10
303.228
 20
15.4775
 30
0
 11
303.228
 21
-91.6775
 31
0
  0
ARC
  5
A0B
330
A02
100
AcDbEntity
  8
Sketch008
100
AcDbCircle
 10
301.228
 20
-91.6775
 30
0
 40
2
100
AcDbArc
 50
-90
 51
0
  0
LINE
  5
A0C
330
A02
100
AcDbEntity
  8
Sketch008
100
AcDbLine
 10
301.228
 20
-93.6775
 30
0
 11
-15.4775
 21
-93.6775
 31
0
  0
ARC
  5
A0D
330
A02
100
AcDbEntity
  8
Sketch008
100
AcDbCircle
 10
-15.4775
 20
-91.6775
 30
0
 40
2
100
AcDbArc
 50
180
 51
-90
  0
LINE
  5
A0E
330
A02
100
AcDbEntity
  8
Sketch008
100
AcDbLine
 10
-17.4775
 20
-91.6775
 30
0
 11
-17.4775
 21
-41.7225
 31
0
  0
LINE
  5
A0F
330
A02
100
AcDbEntity
  8
Sketch008
100
AcDbLine
 10
-17.4775
 20
-41.7225
 30
0
 11
81.5225
 21
-41.7225
 31
0
  0
LINE
  5
A10
330
A02
100
AcDbEntity
  8
Sketch008
100
AcDbLine
 10
81.5225
 20
17.4775
 30
0
 11
81.5225
 21
-41.7225
 31
0
  0
CIRCLE
  5
A11
330
A02
100
AcDbEntity
  8
Sketch008
100
AcDbCircle
 10
299.656
 20
-90.1055
 40
1.55
  0
LINE
  5
A12
330
A02
100
AcDbEntity
  8
Sketch008
100
AcDbLine
 10
278.75
 20
-69.2
 30
0
 11
292.75
 21
-69.2
 31
0
  0
LINE
  5
A13
330
A02
100
AcDbEntity
  8
Sketch008
100
AcDbLine
 10
292.75
 20
-69.2
 30
0
 11
292.75
 21
-83.2
 31
0
  0
LINE
  5
A14
330
A02
100
AcDbEntity
  8
Sketch008
100
AcDbLine
 10
292.75
 20
-83.2
 30
0
 11
278.75
 21
-83.2
 31
0
  0
LINE
  5
A15
330
A02
100
AcDbEntity
  8
Sketch008
100
AcDbLine
 10
278.75
 20
-83.2
 30
0
 11
278.75
 21
-69.2
 31
0
  0
LINE
  5
A16
330
A02
100
AcDbEntity
  8
Sketch008
100
AcDbLine
 10
259.7
 20
-69.2
 30
0
 11
273.7
 21
-69.2
 31
0
  0
LINE
  5
A17
330
A02
100
AcDbEntity
  8
Sketch008
100
AcDbLine
 10
273.7
 20
-69.2
 30
0
 11
273.7
 21
-83.2
 31
0
  0
LINE
  5
A18
330
A02
100
AcDbEntity
  8
Sketch008
100
AcDbLine
 10
273.7
 20
-83.2
 30
0
 11
259.7
 21
-83.2
 31
0
  0
LINE
  5
A19
330
A02
100
AcDbEntity
  8
Sketch008
100
AcDbLine
 10
259.7
 20
-83.2
 30
0
 11
259.7
 21
-69.2
 31
0
  0
LINE
  5
A1A
330
A02
100
AcDbEntity
  8
Sketch008
100
AcDbLine
 10
240.65
 20
-69.2
 30
0
 11
254.65
 21
-69.2
 31
0
  0
LINE
  5
A1B
330
A02
100
AcDbEntity
  8
Sketch008
100
AcDbLine
 10
254.65
 20
-69.2
 30
0
 11
254.65
 21
-83.2
 31
0
  0
LINE
  5
A1C
330
A02
100
AcDbEntity
  8
Sketch008
100
AcDbLine
 10
254.65
 20
-83.2
 30
0
 11
240.65
 21
-83.2
 31
0
  0
LINE
  5
A1D
330
A02
100
AcDbEntity
  8
Sketch008
100
AcDbLine
 10
240.65
 20
-83.2
 30
0
 11
240.65
 21
-69.2
 31
0
  0
LINE
  5
A1E
330
A02
100
AcDbEntity
  8
Sketch008
100
AcDbLine
 10
221.6
 20
-69.2
 30
0
 11
235.6
 21
-69.2
 31
0
  0
LINE
  5
A1F
330
A02
100
AcDbEntity
  8
Sketch008
100
AcDbLine
 10
235.6
 20
-69.2
 30
0
 11
235.6
 21
-83.2
 31
0
  0
LINE
  5
A20
330
A02
100
AcDbEntity
  8
Sketch008
100
AcDbLine
 10
235.6
 20
-83.2
 30
0
 11
221.6
 21
-83.2
 31
0
  0
LINE
  5
A21
330
A02
100
AcDbEntity
  8
Sketch008
100
AcDbLine
 10
221.6
 20
-83.2
 30
0
 11
221.6
 21
-69.2
 31
0
  0
CIRCLE
  5
A22
330
A02
100
AcDbEntity
  8
Sketch008
100
AcDbCircle
 10
195.135
 20
-90.1055
 40
1.55
  0
LINE
  5
A23
330
A02
100
AcDbEntity
  8
Sketch008
100
AcDbLine
 10
202.55
 20
-69.2
 30
0
 11
216.55
 21
-69.2
 31
0
  0
LINE
  5
A24
330
A02
100
AcDbEntity
  8
Sketch008
100
AcDbLine
 10
216.55
 20
-69.2
 30
0
 11
216.55
 21
-83.2
 31
0
  0
LINE
  5
A25
330
A02
100
AcDbEntity
  8
Sketch008
100
AcDbLine
 10
216.55
 20
-83.2
 30
0
 11
202.55
 21
-83.2
 31
0
  0
LINE
  5
A26
330
A02
100
AcDbEntity
  8
Sketch008
100
AcDbLine
 10
202.55
 20
-83.2
 30
0
 11
202.55
 21
-69.2
 31
0
  0
LINE
  5
A27
330
A02
100
AcDbEntity
  8
Sketch008
100
AcDbLine
 10
183.5
 20
-69.2
 30
0
 11
197.5
 21
-69.2
 31
0
  0
LINE
  5
A28
330
A02
100
AcDbEntity
  8
Sketch008
100
AcDbLine
 10
197.5
 20
-69.2
 30
0
 11
197.5
 21
-83.2
 31
0
  0
LINE
  5
A29
330
A02
100
AcDbEntity
  8
Sketch008
100
AcDbLine
 10
197.5
 20
-83.2
 30
0
 11
183.5
 21
-83.2
 31
0
  0
LINE
  5
A2A
330
A02
100
AcDbEntity
  8
Sketch008
100
AcDbLine
 10
183.5
 20
-83.2
 30
0
 11
183.5
 21
-69.2
 31
0
  0
LINE
  5
A2B
330
A02
100
AcDbEntity
  8
Sketch008
100
AcDbLine
 10
164.45
 20
-69.2
 30
0
 11
178.45
 21
-69.2
 31
0
  0
LINE
  5
A2C
330
A02
100
AcDbEntity
  8
Sketch008
100
AcDbLine
 10
178.45
 20
-69.2
 30
0
 11
178.45
 21
-83.2
 31
0
  0
LINE
  5
A2D
330
A02
100
AcDbEntity
  8
Sketch008
100
AcDbLine
 10
178.45
 20
-83.2
 30
0
 11
164.45
 21
-83.2
 31
0
  0
LINE
  5
A2E
330
A02
100
AcDbEntity
  8
Sketch008
100
AcDbLine
 10
164.45
 20
-83.2
 30
0
 11
164.45
 21
-69.2
 31
0
  0
LINE
  5
A2F
330
A02
100
AcDbEntity
  8
Sketch008
100
AcDbLine
 10
145.4
 20
-69.2
 30
0
 11
159.4
 21
-69.2
 31
0
  0
LINE
  5
A30
330
A02
100
AcDbEntity
  8
Sketch008
100
AcDbLine
 10
159.4
 20
-69.2
 30
0
 11
159.4
 21
-83.2
 31
0
  0
LINE
  5
A31
330
A02
100
AcDbEntity
  8
Sketch008
100
AcDbLine
 10
159.4
 20
-83.2
 30
0
 11
145.4
 21
-83.2
 31
0
  0
LINE
  5
A32
330
A02
100
AcDbEntity
  8
Sketch008
100
AcDbLine
 10
145.4
 20
-83.2
 30
0
 11
145.4
 21
-69.2
 31
0
  0
LINE
  5
A33
330
A02
100
AcDbEntity
  8
Sketch008
100
AcDbLine
 10
269.225
 20
-50.15
 30
0
 11
283.225
 21
-50.15
 31
0
  0
LINE
  5
A34
330
A02
100
AcDbEntity
  8
Sketch008
100
AcDbLine
 10
283.225
 20
-50.15
 30
0
 11
283.225
 21
-64.15
 31
0
  0
LINE
  5
A35
330
A02
100
AcDbEntity
  8
Sketch008
100
AcDbLine
 10
283.225
 20
-64.15
 30
0
 11
269.225
 21
-64.15
 31
0
  0
LINE
  5
A36
330
A02
100
AcDbEntity
  8
Sketch008
100
AcDbLine
 10
269.225
 20
-64.15
 30
0
 11
269.225
 21
-50.15
 31
0
  0
LINE
  5
A37
330
A02
100
AcDbEntity
  8
Sketch008
100
AcDbLine
 10
250.175
 20
-50.15
 30
0
 11
264.175
 21
-50.15
 31
0
  0
LINE
  5
A38
330
A02
100
AcDbEntity
  8
Sketch008
100
AcDbLine
 10
264.175
 20
-50.15
 30
0
 11
264.175
 21
-64.15
 31
0
  0
LINE
  5
A39
330
A02
100
AcDbEntity
  8
Sketch008
100
AcDbLine
 10
264.175
 20
-64.15
 30
0
 11
250.175
 21
-64.15
 31
0
  0
LINE
  5
A3A
330
A02
100
AcDbEntity
  8
Sketch008
100
AcDbLine
 10
250.175
 20
-64.15
 30
0
 11
250.175
 21
-50.15
 31
0
  0
LINE
  5
A3B
330
A02
100
AcDbEntity
  8
Sketch008
100
AcDbLine
 10
212.075
 20
-50.15
 30
0
 11
226.075
 21
-50.15
 31
0
  0
LINE
  5
A3C
330
A02
100
AcDbEntity
  8
Sketch008
100
AcDbLine
 10
226.075
 20
-50.15
 30
0
 11
226.075
 21
-64.15
 31
0
  0
LINE
  5
A3D
330
A02
100
AcDbEntity
  8
Sketch008
100
AcDbLine
 10
226.075
 20
-64.15
 30
0
 11
212.075
 21
-64.15
 31
0
  0
LINE
  5
A3E
330
A02
100
AcDbEntity
  8
Sketch008
100
AcDbLine
 10
212.075
 20
-64.15
 30
0
 11
212.075
 21
-50.15
 31
0
  0
LINE
  5
A3F
330
A02
100
AcDbEntity
  8
Sketch008
100
AcDbLine
 10
193.025
 20
-50.15
 30
0
 11
207.025
 21
-50.15
 31
0
  0
LINE
  5
A40
330
A02
100
AcDbEntity
  8
Sketch008
100
AcDbLine
 10
207.025
 20
-50.15
 30
0
 11
207.025
 21
-64.15
 31
0
  0
LINE
  5
A41
330
A02
100
AcDbEntity
  8
Sketch008
100
AcDbLine
 10
207.025
 20
-64.15
 30
0
 11
193.025
 21
-64.15
 31
0
  0
LINE
  5
A42
330
A02
100
AcDbEntity
  8
Sketch008
100
AcDbLine
 10
193.025
 20
-64.15
 30
0
 11
193.025
 21
-50.15
 31
0
  0
LINE
  5
A43
330
A02
100
AcDbEntity
  8
Sketch008
100
AcDbLine
 10
173.975
 20
-50.15
 30
0
 11
187.975
 21
-50.15
 31
0
  0
LINE
  5
A44
330
A02
100
AcDbEntity
  8
Sketch008
100
AcDbLine
 10
187.975
 20
-50.15
 30
0
 11
187.975
 21
-64.15
 31
0
  0
LINE
  5
A45
330
A02
100
AcDbEntity
  8
Sketch008
100
AcDbLine
 10
187.975
 20
-64.15
 30
0
 11
173.975
 21
-64.15
 31
0
  0
LINE
  5
A46
330
A02
100
AcDbEntity
  8
Sketch008
100
AcDbLine
 10
173.975
 20
-64.15
 30
0
 11
173.975
 21
-50.15
 31
0
  0
LINE
  5
A47
330
A02
100
AcDbEntity
  8
Sketch008
100
AcDbLine
 10
135.875
 20
-50.15
 30
0
 11
149.875
 21
-50.15
 31
0
  0
LINE
  5
A48
330
A02
100
AcDbEntity
  8
Sketch008
100
AcDbLine
 10
149.875
 20
-50.15
 30
0
 11
149.875
 21
-64.15
 31
0
  0
LINE
  5
A49
330
A02
100
AcDbEntity
  8
Sketch008
100
AcDbLine
 10
149.875
 20
-64.15
 30
0
 11
135.875
 21
-64.15
 31
0
  0
LINE
  5
A4A
330
A02
100
AcDbEntity
  8
Sketch008
100
AcDbLine
 10
135.875
 20
-64.15
 30
0
 11
135.875
 21
-50.15
 31
0
  0
LINE
  5
A4B
330
A02
100
AcDbEntity
  8
Sketch008
100
AcDbLine
 10
164.45
 20
-31.1
 30
0
 11
178.45
 21
-31.1
 31
0
  0
LINE
  5
A4C
330
A02
100
AcDbEntity
  8
Sketch008
100
AcDbLine
 10
178.45
 20
-31.1
 30
0
 11
178.45
 21
-45.1
 31
0
  0
LINE
  5
A4D
330
A02
100
AcDbEntity
  8
Sketch008
100
AcDbLine
 10
178.45
 20
-45.1
 30
0
 11
164.45
 21
-45.1
 31
0
  0
LINE
  5
A4E
330
A02
100
AcDbEntity
  8
Sketch008
100
AcDbLine
 10
164.45
 20
-45.1
 30
0
 11
164.45
 21
-31.1
 31
0
  0
LINE
  5
A4F
330
A02
100
AcDbEntity
  8
Sketch008
100
AcDbLine
 10
145.4
 20
-31.1
 30
0
 11
159.4
 21
-31.1
 31
0
  0
LINE
  5
A50
330
A02
100
AcDbEntity
  8
Sketch008
100
AcDbLine
 10
159.4
 20
-31.1
 30
0
 11
159.4
 21
-45.1
 31
0
  0
LINE
  5
A51
330
A02
100
AcDbEntity
  8
Sketch008
100
AcDbLine
 10
159.4
 20
-45.1
 30
0
 11
145.4
 21
-45.1
 31
0
  0
LINE
  5
A52
330
A02
100
AcDbEntity
  8
Sketch008
100
AcDbLine
 10
145.4
 20
-45.1
 30
0
 11
145.4
 21
-31.1
 31
0
  0
CIRCLE
  5
A53
330
A02
100
AcDbEntity
  8
Sketch008
100
AcDbCircle
 10
90.6148
 20
-90.1055
 40
1.55
  0
LINE
  5
A54
330
A02
100
AcDbEntity
  8
Sketch008
100
AcDbLine
 10
126.35
 20
-69.2
 30
0
 11
140.35
 21
-69.2
 31
0
  0
LINE
  5
A55
330
A02
100
AcDbEntity
  8
Sketch008
100
AcDbLine
 10
140.35
 20
-69.2
 30
0
 11
140.35
 21
-83.2
 31
0
  0
LINE
  5
A56
330
A02
100
AcDbEntity
  8
Sketch008
100
AcDbLine
 10
140.35
 20
-83.2
 30
0
 11
126.35
 21
-83.2
 31
0
  0
LINE
  5
A57
330
A02
100
AcDbEntity
  8
Sketch008
100
AcDbLine
 10
126.35
 20
-83.2
 30
0
 11
126.35
 21
-69.2
 31
0
  0
LINE
  5
A58
330
A02
100
AcDbEntity
  8
Sketch008
100
AcDbLine
 10
107.3
 20
-69.2
 30
0
 11
121.3
 21
-69.2
 31
0
  0
LINE
  5
A59
330
A02
100
AcDbEntity
  8
Sketch008
100
AcDbLine
 10
121.3
 20
-69.2
 30
0
 11
121.3
 21
-83.2
 31
0
  0
LINE
  5
A5A
330
A02
100
AcDbEntity
  8
Sketch008
100
AcDbLine
 10
121.3
 20
-83.2
 30
0
 11
107.3
 21
-83.2
 31
0
  0
LINE
  5
A5B
330
A02
100
AcDbEntity
  8
Sketch008
100
AcDbLine
 10
107.3
 20
-83.2
 30
0
 11
107.3
 21
-69.2
 31
0
  0
LINE
  5
A5C
330
A02
100
AcDbEntity
  8
Sketch008
100
AcDbLine
 10
88.25
 20
-69.2
 30
0
 11
102.25
 21
-69.2
 31
0
  0
LINE
  5
A5D
330
A02
100
AcDbEntity
  8
Sketch008
100
AcDbLine
 10
102.25
 20
-69.2
 30
0
 11
102.25
 21
-83.2
 31
0
  0
LINE
  5
A5E
330
A02
100
AcDbEntity
  8
Sketch008
100
AcDbLine
 10
102.25
 20
-83.2
 30
0
 11
88.25
 21
-83.2
 31
0
  0
LINE
  5
A5F
330
A02
100
AcDbEntity
  8
Sketch008
100
AcDbLine
 10
88.25
 20
-83.2
 30
0
 11
88.25
 21
-69.2
 31
0
  0
LINE
  5
A60
330
A02
100
AcDbEntity
  8
Sketch008
100
AcDbLine
 10
69.2
 20
-69.2
 30
0
 11
83.2
 21
-69.2
 31
0
  0
LINE
  5
A61
330
A02
100
AcDbEntity
  8
Sketch008
100
AcDbLine
 10
83.2
 20
-69.2
 30
0
 11
83.2
 21
-83.2
 31
0
  0
LINE
  5
A62
330
A02
100
AcDbEntity
  8
Sketch008
100
AcDbLine
 10
83.2
 20
-83.2
 30
0
 11
69.2
 21
-83.2
 31
0
  0
LINE
  5
A63
330
A02
100
AcDbEntity
  8
Sketch008
100
AcDbLine
 10
69.2
 20
-83.2
 30
0
 11
69.2
 21
-69.2
 31
0
  0
CIRCLE
  5
A64
330
A02
100
AcDbEntity
  8
Sketch008
100
AcDbCircle
 10
-13.9055
 20
-90.1055
 40
1.55
  0
LINE
  5
A65
330
A02
100
AcDbEntity
  8
Sketch008
100
AcDbLine
 10
50.15
 20
-69.2
 30
0
 11
64.15
 21
-69.2
 31
0
  0
LINE
  5
A66
330
A02
100
AcDbEntity
  8
Sketch008
100
AcDbLine
 10
64.15
 20
-69.2
 30
0
 11
64.15
 21
-83.2
 31
0
  0
LINE
  5
A67
330
A02
100
AcDbEntity
  8
Sketch008
100
AcDbLine
 10
64.15
 20
-83.2
 30
0
 11
50.15
 21
-83.2
 31
0
  0
LINE
  5
A68
330
A02
100
AcDbEntity
  8
Sketch008
100
AcDbLine
 10
50.15
 20
-83.2
 30
0
 11
50.15
 21
-69.2
 31
0
  0
LINE
  5
A69
330
A02
100
AcDbEntity
  8
Sketch008
100
AcDbLine
 10
31.1
 20
-69.2
 30
0
 11
45.1
 21
-69.2
 31
0
  0
LINE
  5
A6A
330
A02
100
AcDbEntity
  8
Sketch008
100
AcDbLine
 10
45.1
 20
-69.2
 30
0
 11
45.1
 21
-83.2
 31
0
  0
LINE
  5
A6B
330
A02
100
AcDbEntity
  8
Sketch008
100
AcDbLine
 10
45.1
 20
-83.2
 30
0
 11
31.1
 21
-83.2
 31
0
  0
LINE
  5
A6C
330
A02
100
AcDbEntity
  8
Sketch008
100
AcDbLine
 10
31.1
 20
-83.2
 30
0
 11
31.1
 21
-69.2
 31
0
  0
LINE
  5
A6D
330
A02
100
AcDbEntity
  8
Sketch008
100
AcDbLine
 10
-7
 20
-50.15
 30
0
 11
26.05
 21
-50.15
 31
0
  0
LINE
  5
A6E
330
A02
100
AcDbEntity
  8
Sketch008
100
AcDbLine
 10
26.05
 20
-50.15
 30
0
 11
26.05
 21
-83.2
 31
0
  0
LINE
  5
A6F
330
A02
100
AcDbEntity
  8
Sketch008
100
AcDbLine
 10
26.05
 20
-83.2
 30
0
 11
-7
 21
-83.2
 31
0
  0
LINE
  5
A70
330
A02
100
AcDbEntity
  8
Sketch008
100
AcDbLine
 10
-7
 20
-83.2
 30
0
 11
-7
 21
-50.15
 31
0
  0
LINE
  5
A71
330
A02
100
AcDbEntity
  8
Sketch008
100
AcDbLine
 10
116.825
 20
-50.15
 30
0
 11
130.825
 21
-50.15
 31
0
  0
LINE
  5
A72
330
A02
100
AcDbEntity
  8
Sketch008
100
AcDbLine
 10
130.825
 20
-50.15
 30
0
 11
130.825
 21
-64.15
 31
0
  0
LINE
  5
A73
330
A02
100
AcDbEntity
  8
Sketch008
100
AcDbLine
 10
130.825
 20
-64.15
 30
0
 11
116.825
 21
-64.15
 31
0
  0
LINE
  5
A74
330
A02
100
AcDbEntity
  8
Sketch008
100
AcDbLine
 10
116.825
 20
-64.15
 30
0
 11
116.825
 21
-50.15
 31
0
  0
LINE
  5
A75
330
A02
100
AcDbEntity
  8
Sketch008
100
AcDbLine
 10
78.725
 20
-50.15
 30
0
 11
92.725
 21
-50.15
 31
0
  0
LINE
  5
A76
330
A02
100
AcDbEntity
  8
Sketch008
100
AcDbLine
 10
92.725
 20
-50.15
 30
0
 11
92.725
 21
-64.15
 31
0
  0
LINE
  5
A77
330
A02
100
AcDbEntity
  8
Sketch008
100
AcDbLine
 10
92.725
 20
-64.15
 30
0
 11
78.725
 21
-64.15
 31
0
  0
LINE
  5
A78
330
A02
100
AcDbEntity
  8
Sketch008
100
AcDbLine
 10
78.725
 20
-64.15
 30
0
 11
78.725
 21
-50.15
 31
0
  0
LINE
  5
A79
330
A02
100
AcDbEntity
  8
Sketch008
100
AcDbLine
 10
59.675
 20
-50.15
 30
0
 11
73.675
 21
-50.15
 31
0
  0
LINE
  5
A7A
330
A02
100
AcDbEntity
  8
Sketch008
100
AcDbLine
 10
73.675
 20
-50.15
 30
0
 11
73.675
 21
-64.15
 31
0
  0
LINE
  5
A7B
330
A02
100
AcDbEntity
  8
Sketch008
100
AcDbLine
 10
73.675
 20
-64.15
 30
0
 11
59.675
 21
-64.15
 31
0
  0
LINE
  5
A7C
330
A02
100
AcDbEntity
  8
Sketch008
100
AcDbLine
 10
59.675
 20
-64.15
 30
0
 11
59.675
 21
-50.15
 31
0
  0
LINE
  5
A7D
330
A02
100
AcDbEntity
  8
Sketch008
100
AcDbLine
 10
126.35
 20
-31.1
 30
0
 11
140.35
 21
-31.1
 31
0
  0
LINE
  5
A7E
330
A02
100
AcDbEntity
  8
Sketch008
100
AcDbLine
 10
140.35
 20
-31.1
 30
0
 11
140.35
 21
-45.1
 31
0
  0
LINE
  5
A7F
330
A02
100
AcDbEntity
  8
Sketch008
100
AcDbLine
 10
140.35
 20
-45.1
 30
0
 11
126.35
 21
-45.1
 31
0
  0
LINE
  5
A80
330
A02
100
AcDbEntity
  8
Sketch008
100
AcDbLine
 10
126.35
 20
-45.1
 30
0
 11
126.35
 21
-31.1
 31
0
  0
LINE
  5
A81
330
A02
100
AcDbEntity
  8
Sketch008
100
AcDbLine
 10
107.3
 20
-31.1
 30
0
 11
121.3
 21
-31.1
 31
0
  0
LINE
  5
A82
330
A02
100
AcDbEntity
  8
Sketch008
100
AcDbLine
 10
121.3
 20
-31.1
 30
0
 11
121.3
 21
-45.1
 31
0
  0
LINE
  5
A83
330
A02
100
AcDbEntity
  8
Sketch008
100
AcDbLine
 10
121.3
 20
-45.1
 30
0
 11
107.3
 21
-45.1
 31
0
  0
LINE
  5
A84
330
A02
100
AcDbEntity
  8
Sketch008
100
AcDbLine
 10
107.3
 20
-45.1
 30
0
 11
107.3
 21
-31.1
 31
0
  0
LINE
  5
A85
330
A02
100
AcDbEntity
  8
Sketch008
100
AcDbLine
 10
88.25
 20
-31.1
 30
0
 11
102.25
 21
-31.1
 31
0
  0
LINE
  5
A86
330
A02
100
AcDbEntity
  8
Sketch008
100
AcDbLine
 10
102.25
 20
-31.1
 30
0
 11
102.25
 21
-45.1
 31
0
  0
LINE
  5
A87
330
A02
100
AcDbEntity
  8
Sketch008
100
AcDbLine
 10
102.25
 20
-45.1
 30
0
 11
88.25
 21
-45.1
 31
0
  0
LINE
  5
A88
330
A02
100
AcDbEntity
  8
Sketch008
100
AcDbLine
 10
88.25
 20
-45.1
 30
0
 11
88.25
 21
-31.1
 31
0
  0
LINE
  5
A89
330
A02
100
AcDbEntity
  8
Sketch008
100
AcDbLine
 10
40.625
 20
-50.15
 30
0
 11
54.625
 21
-50.15
 31
0
  0
LINE
  5
A8A
330
A02
100
AcDbEntity
  8
Sketch008
100
AcDbLine
 10
54.625
 20
-50.15
 30
0
 11
54.625
 21
-64.15
 31
0
  0
LINE
  5
A8B
330
A02
100
AcDbEntity
  8
Sketch008
100
AcDbLine
 10
54.625
 20
-64.15
 30
0
 11
40.625
 21
-64.15
 31
0
  0
LINE
  5
A8C
330
A02
100
AcDbEntity
  8
Sketch008
100
AcDbLine
 10
40.625
 20
-64.15
 30
0
 11
40.625
 21
-50.15
 31
0
  0
CIRCLE
  5
A8D
330
A02
100
AcDbEntity
  8
Sketch008
100
AcDbCircle
 10
-13.9055
 20
-46.578
 40
1.55
  0
LINE
  5
A8E
330
A02
100
AcDbEntity
  8
Sketch008
100
AcDbLine
 10
278.75
 20
-31.1
 30
0
 11
292.75
 21
-31.1
 31
0
  0
LINE
  5
A8F
330
A02
100
AcDbEntity
  8
Sketch008
100
AcDbLine
 10
292.75
 20
-31.1
 30
0
 11
292.75
 21
-45.1
 31
0
  0
LINE
  5
A90
330
A02
100
AcDbEntity
  8
Sketch008
100
AcDbLine
 10
292.75
 20
-45.1
 30
0
 11
278.75
 21
-45.1
 31
0
  0
LINE
  5
A91
330
A02
100
AcDbEntity
  8
Sketch008
100
AcDbLine
 10
278.75
 20
-45.1
 30
0
 11
278.75
 21
-31.1
 31
0
  0
LINE
  5
A92
330
A02
100
AcDbEntity
  8
Sketch008
100
AcDbLine
 10
259.7
 20
-31.1
 30
0
 11
273.7
 21
-31.1
 31
0
  0
LINE
  5
A93
330
A02
100
AcDbEntity
  8
Sketch008
100
AcDbLine
 10
273.7
 20
-31.1
 30
0
 11
273.7
 21
-45.1
 31
0
  0
LINE
  5
A94
330
A02
100
AcDbEntity
  8
Sketch008
100
AcDbLine
 10
273.7
 20
-45.1
 30
0
 11
259.7
 21
-45.1
 31
0
  0
LINE
  5
A95
330
A02
100
AcDbEntity
  8
Sketch008
100
AcDbLine
 10
259.7
 20
-45.1
 30
0
 11
259.7
 21
-31.1
 31
0
  0
LINE
  5
A96
330
A02
100
AcDbEntity
  8
Sketch008
100
AcDbLine
 10
240.65
 20
-31.1
 30
0
 11
254.65
 21
-31.1
 31
0
  0
LINE
  5
A97
330
A02
100
AcDbEntity
  8
Sketch008
100
AcDbLine
 10
254.65
 20
-31.1
 30
0
 11
254.65
 21
-45.1
 31
0
  0
LINE
  5
A98
330
A02
100
AcDbEntity
  8
Sketch008
100
AcDbLine
 10
254.65
 20
-45.1
 30
0
 11
240.65
 21
-45.1
 31
0
  0
LINE
  5
A99
330
A02
100
AcDbEntity
  8
Sketch008
100
AcDbLine
 10
240.65
 20
-45.1
 30
0
 11
240.65
 21
-31.1
 31
0
  0
LINE
  5
A9A
330
A02
100
AcDbEntity
  8
Sketch008
100
AcDbLine
 10
221.6
 20
-31.1
 30
0
 11
235.6
 21
-31.1
 31
0
  0
LINE
  5
A9B
330
A02
100
AcDbEntity
  8
Sketch008
100
AcDbLine
 10
235.6
 20
-31.1
 30
0
 11
235.6
 21
-45.1
 31
0
  0
LINE
  5
A9C
330
A02
100
AcDbEntity
  8
Sketch008
100
AcDbLine
 10
235.6
 20
-45.1
 30
0
 11
221.6
 21
-45.1
 31
0
  0
LINE
  5
A9D
330
A02
100
AcDbEntity
  8
Sketch008
100
AcDbLine
 10
221.6
 20
-45.1
 30
0
 11
221.6
 21
-31.1
 31
0
  0
LINE
  5
A9E
330
A02
100
AcDbEntity
  8
Sketch008
100
AcDbLine
 10
202.55
 20
-31.1
 30
0
 11
216.55
 21
-31.1
 31
0
  0
LINE
  5
A9F
330
A02
100
AcDbEntity
  8
Sketch008
100
AcDbLine
 10
216.55
 20
-31.1
 30
0
 11
216.55
 21
-45.1
 31
0
  0
LINE
  5
AA0
330
A02
100
AcDbEntity
  8
Sketch008
100
AcDbLine
 10
216.55
 20
-45.1
 30
0
 11
202.55
 21
-45.1
 31
0
  0
LINE
  5
AA1
330
A02
100
AcDbEntity
  8
Sketch008
100
AcDbLine
 10
202.55
 20
-45.1
 30
0
 11
202.55
 21
-31.1
 31
0
  0
LINE
  5
AA2
330
A02
100
AcDbEntity
  8
Sketch008
100
AcDbLine
 10
183.5
 20
-31.1
 30
0
 11
197.5
 21
-31.1
 31
0
  0
LINE
  5
AA3
330
A02
100
AcDbEntity
  8
Sketch008
100
AcDbLine
 10
197.5
 20
-31.1
 30
0
 11
197.5
 21
-45.1
 31
0
  0
LINE
  5
AA4
330
A02
100
AcDbEntity
  8
Sketch008
100
AcDbLine
 10
197.5
 20
-45.1
 30
0
 11
183.5
 21
-45.1
 31
0
  0
LINE
  5
AA5
330
A02
100
AcDbEntity
  8
Sketch008
100
AcDbLine
 10
183.5
 20
-45.1
 30
0
 11
183.5
 21
-31.1
 31
0
  0
LINE
  5
AA6
330
A02
100
AcDbEntity
  8
Sketch008
100
AcDbLine
 10
164.45
 20
-12.05
 30
0
 11
178.45
 21
-12.05
 31
0
  0
LINE
  5
AA7
330
A02
100
AcDbEntity
  8
Sketch008
100
AcDbLine
 10
178.45
 20
-12.05
 30
0
 11
178.45
 21
-26.05
 31
0
  0
LINE
  5
AA8
330
A02
100
AcDbEntity
  8
Sketch008
100
AcDbLine
 10
178.45
 20
-26.05
 30
0
 11
164.45
 21
-26.05
 31
0
  0
LINE
  5
AA9
330
A02
100
AcDbEntity
  8
Sketch008
100
AcDbLine
 10
164.45
 20
-26.05
 30
0
 11
164.45
 21
-12.05
 31
0
  0
LINE
  5
AAA
330
A02
100
AcDbEntity
  8
Sketch008
100
AcDbLine
 10
145.4
 20
-12.05
 30
0
 11
159.4
 21
-12.05
 31
0
  0
LINE
  5
AAB
330
A02
100
AcDbEntity
  8
Sketch008
100
AcDbLine
 10
159.4
 20
-12.05
 30
0
 11
159.4
 21
-26.05
 31
0
  0
LINE
  5
AAC
330
A02
100
AcDbEntity
  8
Sketch008
100
AcDbLine
 10
159.4
 20
-26.05
 30
0
 11
145.4
 21
-26.05
 31
0
  0
LINE
  5
AAD
330
A02
100
AcDbEntity
  8
Sketch008
100
AcDbLine
 10
145.4
 20
-26.05
 30
0
 11
145.4
 21
-12.05
 31
0
  0
LINE
  5
AAE
330
A02
100
AcDbEntity
  8
Sketch008
100
AcDbLine
 10
278.75
 20
7
 30
0
 11
292.75
 21
7
 31
0
  0
LINE
  5
AAF
330
A02
100
AcDbEntity
  8
Sketch008
100
AcDbLine
 10
292.75
 20
7
 30
0
 11
292.75
 21
-7
 31
0
  0
LINE
  5
AB0
330
A02
100
AcDbEntity
  8
Sketch008
100
AcDbLine
 10
292.75
 20
-7
 30
0
 11
278.75
 21
-7
 31
0
  0
LINE
  5
AB1
330
A02
100
AcDbEntity
  8
Sketch008
100
AcDbLine
 10
278.75
 20
-7
 30
0
 11
278.75
 21
7
 31
0
  0
LINE
  5
AB2
330
A02
100
AcDbEntity
  8
Sketch008
100
AcDbLine
 10
250.175
 20
7
 30
0
 11
264.175
 21
7
 31
0
  0
LINE
  5
AB3
330
A02
100
AcDbEntity
  8
Sketch008
100
AcDbLine
 10
264.175
 20
7
 30
0
 11
264.175
 21
-7
 31
0
  0
LINE
  5
AB4
330
A02
100
AcDbEntity
  8
Sketch008
100
AcDbLine
 10
264.175
 20
-7
 30
0
 11
250.175
 21
-7
 31
0
  0
LINE
  5
AB5
330
A02
100
AcDbEntity
  8
Sketch008
100
AcDbLine
 10
250.175
 20
-7
 30
0
 11
250.175
 21
7
 31
0
  0
LINE
  5
AB6
330
A02
100
AcDbEntity
  8
Sketch008
100
AcDbLine
 10
221.6
 20
7
 30
0
 11
235.6
 21
7
 31
0
  0
LINE
  5
AB7
330
A02
100
AcDbEntity
  8
Sketch008
100
AcDbLine
 10
235.6
 20
7
 30
0
 11
235.6
 21
-7
 31
0
  0
LINE
  5
AB8
330
A02
100
AcDbEntity
  8
Sketch008
100
AcDbLine
 10
235.6
 20
-7
 30
0
 11
221.6
 21
-7
 31
0
  0
LINE
  5
AB9
330
A02
100
AcDbEntity
  8
Sketch008
100
AcDbLine
 10
221.6
 20
-7
 30
0
 11
221.6
 21
7
 31
0
  0
CIRCLE
  5
ABA
330
A02
100
AcDbEntity
  8
Sketch008
100
AcDbCircle
 10
299.656
 20
13.9055
 40
1.55
  0
LINE
  5
ABB
330
A02
100
AcDbEntity
  8
Sketch008
100
AcDbLine
 10
193.025
 20
7
 30
0
 11
207.025
 21
7
 31
0
  0
LINE
  5
ABC
330
A02
100
AcDbEntity
  8
Sketch008
100
AcDbLine
 10
207.025
 20
7
 30
0
 11
207.025
 21
-7
 31
0
  0
LINE
  5
ABD
330
A02
100
AcDbEntity
  8
Sketch008
100
AcDbLine
 10
207.025
 20
-7
 30
0
 11
193.025
 21
-7
 31
0
  0
LINE
  5
ABE
330
A02
100
AcDbEntity
  8
Sketch008
100
AcDbLine
 10
193.025
 20
-7
 30
0
 11
193.025
 21
7
 31
0
  0
LINE
  5
ABF
330
A02
100
AcDbEntity
  8
Sketch008
100
AcDbLine
 10
164.45
 20
7
 30
0
 11
178.45
 21
7
 31
0
  0
LINE
  5
AC0
330
A02
100
AcDbEntity
  8
Sketch008
100
AcDbLine
 10
178.45
 20
7
 30
0
 11
178.45
 21
-7
 31
0
  0
LINE
  5
AC1
330
A02
100
AcDbEntity
  8
Sketch008
100
AcDbLine
 10
178.45
 20
-7
 30
0
 11
164.45
 21
-7
 31
0
  0
LINE
  5
AC2
330
A02
100
AcDbEntity
  8
Sketch008
100
AcDbLine
 10
164.45
 20
-7
 30
0
 11
164.45
 21
7
 31
0
  0
LINE
  5
AC3
330
A02
100
AcDbEntity
  8
Sketch008
100
AcDbLine
 10
145.4
 20
7
 30
0
 11
159.4
 21
7
 31
0
  0
LINE
  5
AC4
330
A02
100
AcDbEntity
  8
Sketch008
100
AcDbLine
 10
159.4
 20
7
 30
0
 11
159.4
 21
-7
 31
0
  0
LINE
  5
AC5
330
A02
100
AcDbEntity
  8
Sketch008
100
AcDbLine
 10
159.4
 20
-7
 30
0
 11
145.4
 21
-7
 31
0
  0
LINE
  5
AC6
330
A02
100
AcDbEntity
  8
Sketch008
100
AcDbLine
 10
145.4
 20
-7
 30
0
 11
145.4
 21
7
 31
0
  0
CIRCLE
  5
AC7
330
A02
100
AcDbEntity
  8
Sketch008
100
AcDbCircle
 10
195.135
 20
13.9055
 40
1.55
  0
LINE
  5
AC8
330
A02
100
AcDbEntity
  8
Sketch008
100
AcDbLine
 10
126.35
 20
-12.05
 30
0
 11
140.35
 21
-12.05
 31
0
  0
LINE
  5
AC9
330
A02
100
AcDbEntity
  8
Sketch008
100
AcDbLine
 10
140.35
 20
-12.05
 30
0
 11
140.35
 21
-26.05
 31
0
  0
LINE
  5
ACA
330
A02
100
AcDbEntity
  8
Sketch008
100
AcDbLine
 10
140.35
 20
-26.05
 30
0
 11
126.35
 21
-26.05
 31
0
  0
LINE
  5
ACB
330
A02
100
AcDbEntity
  8
Sketch008
100
AcDbLine
 10
126.35
 20
-26.05
 30
0
 11
126.35
 21
-12.05
 31
0
  0
LINE
  5
ACC
330
A02
100
AcDbEntity
  8
Sketch008
100
AcDbLine
 10
107.3
 20
-12.05
 30
0
 11
121.3
 21
-12.05
 31
0
  0
LINE
  5
ACD
330
A02
100
AcDbEntity
  8
Sketch008
100
AcDbLine
 10
121.3
 20
-12.05
 30
0
 11
121.3
 21
-26.05
 31
0
  0
LINE
  5
ACE
330
A02
100
AcDbEntity
  8
Sketch008
100
AcDbLine
 10
121.3
 20
-26.05
 30
0
 11
107.3
 21
-26.05
 31
0
  0
LINE
  5
ACF
330
A02
100
AcDbEntity
  8
Sketch008
100
AcDbLine
 10
107.3
 20
-26.05
 30
0
 11
107.3
 21
-12.05
 31
0
  0
LINE
  5
AD0
330
A02
100
AcDbEntity
  8
Sketch008
100
AcDbLine
 10
88.25
 20
-12.05
 30
0
 11
102.25
 21
-12.05
 31
0
  0
LINE
  5
AD1
330
A02
100
AcDbEntity
  8
Sketch008
100
AcDbLine
 10
102.25
 20
-12.05
 30
0
 11
102.25
 21
-26.05
 31
0
  0
LINE
  5
AD2
330
A02
100
AcDbEntity
  8
Sketch008
100
AcDbLine
 10
102.25
 20
-26.05
 30
0
 11
88.25
 21
-26.05
 31
0
  0
LINE
  5
AD3
330
A02
100
AcDbEntity
  8
Sketch008
100
AcDbLine
 10
88.25
 20
-26.05
 30
0
 11
88.25
 21
-12.05
 31
0
  0
LINE
  5
AD4
330
A02
100
AcDbEntity
  8
Sketch008
100
AcDbLine
 10
126.35
 20
7
 30
0
 11
140.35
 21
7
 31
0
  0
LINE
  5
AD5
330
A02
100
AcDbEntity
  8
Sketch008
100
AcDbLine
 10
140.35
 20
7
 30
0
 11
140.35
 21
-7
 31
0
  0
LINE
  5
AD6
330
A02
100
AcDbEntity
  8
Sketch008
100
AcDbLine
 10
140.35
 20
-7
 30
0
 11
126.35
 21
-7
 31
0
  0
LINE
  5
AD7
330
A02
100
AcDbEntity
  8
Sketch008
100
AcDbLine
 10
126.35
 20
-7
 30
0
 11
126.35
 21
7
 31
0
  0
LINE
  5
AD8
330
A02
100
AcDbEntity
  8
Sketch008
100
AcDbLine
 10
107.3
 20
7
 30
0
 11
121.3
 21
7
 31
0
  0
LINE
  5
AD9
330
A02
100
AcDbEntity
  8
Sketch008
100
AcDbLine
 10
121.3
 20
7
 30
0
 11
121.3
 21
-7
 31
0
  0
LINE
  5
ADA
330
A02
100
AcDbEntity
  8
Sketch008
100
AcDbLine
 10
121.3
 20
-7
 30
0
 11
107.3
 21
-7
 31
0
  0
LINE
  5
ADB
330
A02
100
AcDbEntity
  8
Sketch008
100
AcDbLine
 10
107.3
 20
-7
 30
0
 11
107.3
 21
7
 31
0
  0
LINE
  5
ADC
330
A02
100
AcDbEntity
  8
Sketch008
100
AcDbLine
 10
88.25
 20
7
 30
0
 11
102.25
 21
7
 31
0
  0
LINE
  5
ADD
330
A02
100
AcDbEntity
  8
Sketch008
100
AcDbLine
 10
102.25
 20
7
 30
0
 11
102.25
 21
-7
 31
0
  0
LINE
  5
ADE
330
A02
100
AcDbEntity
  8
Sketch008
100
AcDbLine
 10
102.25
 20
-7
 30
0
 11
88.25
 21
-7
 31
0
  0
LINE
  5
ADF
330
A02
100
AcDbEntity
  8
Sketch008
100
AcDbLine
 10
88.25
 20
-7
 30
0
 11
88.25
 21
7
 31
0
  0
CIRCLE
  5
AE0
330
A02
100
AcDbEntity
  8
Sketch008
100
AcDbCircle
 10
90.6148
 20
13.9055
 40
1.55
  0
ENDSEC
  0
SECTION
  2
OBJECTS
  0
DICTIONARY
  5
F000
330
0
100
AcDbDictionary
  3
ACAD_GROUP
350
F001
  0
DICTIONARY
  5
F001
330
F000
100
AcDbDictionary
  0
ENDSEC
  0
EOF